<svg id="Layer_1" data-name="Layer 1" xmlns="http://www.w3.org/2000/svg" viewBox="0 0 500 500"><defs><style>.cls-1{fill:#141414;}</style></defs><title>icons</title><path class="cls-1" d="M331.2,483.65h-245a30.09,30.09,0,0,1-30.06-30.06V288H23a8.81,8.81,0,0,1-5.46-1.9C11.07,281,7.38,273.71,7.38,266.16a25.68,25.68,0,0,1,10.12-20l44.36-35.28V117.2A12.18,12.18,0,0,1,74,105h52.19a12.18,12.18,0,0,1,12.16,12.18V150l48.43-38.52c12.28-9.77,31.53-9.77,43.81,0l21.48,17.1a8.75,8.75,0,1,1-10.9,13.7l-21.48-17.1c-5.86-4.66-16.15-4.66-22,0l-62.63,49.83a8.75,8.75,0,0,1-14.2-6.85V122.53H79.37v92.62A8.73,8.73,0,0,1,76.06,222L28.4,259.91c-2.26,1.81-3.51,4-3.51,6.25a7.05,7.05,0,0,0,1.62,4.34h38.4a8.76,8.76,0,0,1,8.76,8.76V453.59a12.56,12.56,0,0,0,12.55,12.55h245a12.56,12.56,0,0,0,12.55-12.55V279.26a8.76,8.76,0,0,1,8.76-8.76h38.4a7.05,7.05,0,0,0,1.62-4.34c0-2.23-1.25-4.44-3.52-6.25a8.76,8.76,0,0,1,10.91-13.7,25.67,25.67,0,0,1,10.11,20c0,7.55-3.68,14.82-10.11,19.95a8.83,8.83,0,0,1-5.45,1.9H361.25V453.59A30.09,30.09,0,0,1,331.2,483.65Z"/><path class="cls-1" d="M236.44,402.48H181a26.29,26.29,0,0,1-26.26-26.27v-54A26.29,26.29,0,0,1,181,296h55.45a26.3,26.3,0,0,1,26.26,26.26v54A26.29,26.29,0,0,1,236.44,402.48Zm-55.45-89a8.76,8.76,0,0,0-8.76,8.75v54A8.77,8.77,0,0,0,181,385h55.45a8.77,8.77,0,0,0,8.75-8.76v-54a8.76,8.76,0,0,0-8.75-8.75Z"/><path class="cls-1" d="M372.12,191V173.32c-10.13-.17-20.61-3.33-26.72-7.69l4.19-11.7a46.51,46.51,0,0,0,25.13,7.51c12.4,0,20.78-7.16,20.78-17.12,0-9.58-6.81-15.53-19.72-20.75-17.81-7-28.81-15-28.81-30.21,0-14.5,10.3-25.5,26.37-28.12V47.61h10.81v17c10.48.35,17.64,3.13,22.71,6.08l-4.37,11.55a42.08,42.08,0,0,0-22-6c-13.44,0-18.5,8-18.5,15,0,9.06,6.45,13.63,21.64,19.91,18,7.33,27.07,16.4,27.07,31.94,0,13.79-9.61,26.71-27.59,29.68V191Z"/><path class="cls-1" d="M255.75,279.8A8.77,8.77,0,0,1,248,267l39.6-76.89a115.09,115.09,0,1,1,94.72,49.7h0a115.68,115.68,0,0,1-33.64-5.05l-1.74-.54-87.14,44.59A8.75,8.75,0,0,1,255.75,279.8ZM382.19,27a97.63,97.63,0,0,0-77.43,157,8.77,8.77,0,0,1,.83,9.33L276,250.85,342.2,217a8.72,8.72,0,0,1,6.95-.45c1.5.54,3,1,4.58,1.52A97.62,97.62,0,1,0,382.19,27Z"/></svg>