<svg id="Layer_1" data-name="Layer 1" xmlns="http://www.w3.org/2000/svg" viewBox="0 0 500 500"><defs><style>.cls-1{fill:#141414;}</style></defs><title>icons</title><path class="cls-1" d="M249.52,268.73h-.38c-31-1.52-61.5-29.19-74.6-66.78a19.26,19.26,0,0,1-20.46-16.1L148.81,152a19.14,19.14,0,0,1,11.38-20.53,63.15,63.15,0,0,1-.95-10.92V108A63.53,63.53,0,0,1,222.7,44.56h.64c2.71-4.73,9-9.55,23.17-9.55,10.66,0,23.76,2.75,36.9,7.72a132.77,132.77,0,0,1,15.54,7A63.06,63.06,0,0,1,337.4,108V120.5a63.55,63.55,0,0,1-.95,10.94,19.11,19.11,0,0,1,11.39,20.49l-5.28,33.92A19.24,19.24,0,0,1,324.49,202c-13.1,37.54-43.65,65.21-74.58,66.73Zm-69.47-83.51a7.93,7.93,0,0,1,7.61,5.76c9.65,33.88,36.19,60.42,61.86,61.92,25.55-1.5,52.06-27.9,61.78-61.59a7.9,7.9,0,0,1,8.8-5.63l3.07.47c2.16,0,3.51-1.15,3.76-2.74l5.27-33.9a3.35,3.35,0,0,0-2.75-3.76l-3.78-.57A7.91,7.91,0,0,1,319.33,135a47.42,47.42,0,0,0,2.25-14.45V108a47.62,47.62,0,0,0-29.42-44,121.38,121.38,0,0,0-14.37-6.51c-11.22-4.26-22.62-6.7-31.28-6.7-6.38,0-9.13,1.36-9.58,1.83a7,7,0,0,1-2,5.57,7.27,7.27,0,0,1-5.64,2.17H222.7A47.67,47.67,0,0,0,175.07,108V120.5A47.62,47.62,0,0,0,177.32,135,7.93,7.93,0,0,1,171,145.18l-3.83.57a3.34,3.34,0,0,0-2.71,3.76l5.27,33.9A3.32,3.32,0,0,0,173,186.2l5.88-.87A7.16,7.16,0,0,1,180.05,185.22Z"/><path class="cls-1" d="M380.39,430.41H320.34a7.92,7.92,0,0,1,0-15.84h60.05a7.92,7.92,0,0,1,0,15.84Z"/><path class="cls-1" d="M281.87,464h-.11a7.91,7.91,0,0,1-7.66-6.46L253.22,346.74a8,8,0,0,1,.39-4.33l14-36.15H232l14,36.15a7.84,7.84,0,0,1,.39,4.37L224.9,457.59a7.91,7.91,0,0,1-7.69,6.42h-.07a7.93,7.93,0,0,1-7.74-6.27L175.75,299.85c-25.93,12.59-75.3,23.22-91.33,26.47-12.26,2.49-33,11.45-33,29.29v9.51l9.93,89.79a7.91,7.91,0,1,1-15.73,1.75L35.65,366l0-10.38c0-24.54,22.94-40.19,45.67-44.79,34.2-6.93,79.43-18.7,94.36-29a8.15,8.15,0,0,1,3.28-1.31l1.21-.19a8,8,0,0,1,9,6.18l27.69,129.94L230.42,346,213,301.2a7.9,7.9,0,0,1,7.37-10.77h58.78a7.91,7.91,0,0,1,7.38,10.77L269.19,346l13.22,70.21,28.13-129.8a8,8,0,0,1,8.95-6.14l1.21.19a8.09,8.09,0,0,1,3.28,1.31c14.93,10.33,60.15,22.1,94.35,29,22.73,4.62,45.67,20.25,45.67,44.79v9.51l-10,91.54a7.91,7.91,0,1,1-15.72-1.75l10-90.64,0-8.66c0-17.82-20.74-26.8-33-29.29-16-3.25-65.44-13.9-91.35-26.48L289.6,457.76A7.91,7.91,0,0,1,281.87,464Z"/></svg>