<svg id="Layer_1" data-name="Layer 1" xmlns="http://www.w3.org/2000/svg" viewBox="0 0 500 500"><defs><style>.cls-1{fill:#141414;}</style></defs><title>icons</title><path class="cls-1" d="M266.25,459.29c-44.24,0-115.31-47.77-125.42-112.45a32.4,32.4,0,0,1-12.46-56.35A121.41,121.41,0,0,1,123,254a9.57,9.57,0,1,1,19.14,0c0,12.79,1.92,23.63,6.66,37.49a9.58,9.58,0,0,1-5.14,11.83,13.33,13.33,0,0,0,5.43,25.52c5,0,9.55,3.83,9.93,8.81,4.37,55.58,69,102.5,107.25,102.5,39.17,0,102.8-45.93,107.26-102.5a9.57,9.57,0,0,1,9.53-8.83h0a13.32,13.32,0,0,0,5.79-25.5,9.57,9.57,0,0,1-5.14-11.83c4.73-13.86,6.66-24.72,6.66-37.5a9.57,9.57,0,0,1,19.14,0,121.84,121.84,0,0,1-5.39,36.49,32.46,32.46,0,0,1-12.48,56.44C381.88,407.26,315.66,459.29,266.25,459.29Z"/><path class="cls-1" d="M171.27,313.06a9.53,9.53,0,0,1-7.74-3.95c-1.34-1.78-8.79-10.68-19.95-5.77a9.56,9.56,0,1,1-7.7-17.51,33.47,33.47,0,0,1,27.34-.32l1.81-21a9.56,9.56,0,0,1,19.05,1.66l-3.28,38.1a9.54,9.54,0,0,1-7,8.4A9.81,9.81,0,0,1,171.27,313.06Z"/><path class="cls-1" d="M361.67,313a8.73,8.73,0,0,1-2.62-.37,9.55,9.55,0,0,1-6.91-8.33l-3.35-38.77a9.56,9.56,0,0,1,19-1.66l1.87,21.63a33.49,33.49,0,0,1,27.35.32,9.56,9.56,0,1,1-7.7,17.51c-11.17-4.92-18.62,4-20,5.83A9.68,9.68,0,0,1,361.67,313Z"/><path class="cls-1" d="M263.53,284.17c-42.46,0-90.85-5.81-140.54-23.32-9.25-3-34.49-11-34.49-37.13a37.7,37.7,0,0,1,29.81-36.83c13-53.72,48.34-92.15,97.7-105.92a9.56,9.56,0,0,1,5.16,18.42c-44.28,12.36-75.49,48.14-85.63,98.12a9.56,9.56,0,0,1-9.37,7.67,18.56,18.56,0,0,0-18.54,18.54c0,7.27,3.65,13.3,21.45,19,139.55,49.16,272.58.65,273.9.15,19.46-5.92,21.88-13.32,21.88-19.15a18.56,18.56,0,0,0-18.53-18.54,9.55,9.55,0,0,1-9.37-7.67c-10.31-50.82-40.53-85.67-85.1-98.12A9.56,9.56,0,0,1,317,81c49,13.69,84.13,52.1,97.16,105.92A37.71,37.71,0,0,1,444,223.72c0,17.73-11.74,30.26-34.9,37.26C405.74,262.24,345.82,284.17,263.53,284.17Z"/><path class="cls-1" d="M281.92,200.81h-30.8A42.15,42.15,0,0,1,209,158.7V89.58a42.15,42.15,0,0,1,42.1-42.09h30.8A42.14,42.14,0,0,1,324,89.58V158.7A42.14,42.14,0,0,1,281.92,200.81ZM251.12,66.63a23,23,0,0,0-23,23V158.7a23,23,0,0,0,23,23h30.8a23,23,0,0,0,22.95-23V89.58a23,23,0,0,0-22.95-23Z"/><path class="cls-1" d="M284,393.84H249.33a9.57,9.57,0,0,1,0-19.13H284a9.57,9.57,0,1,1,0,19.13Z"/><path class="cls-1" d="M231.32,339.12a10,10,0,0,1-6.83-2.89,9.44,9.44,0,0,1-2.74-6.68,9.55,9.55,0,0,1,2.74-6.84,10.09,10.09,0,0,1,13.66,0,9.59,9.59,0,0,1,2.73,6.84,9.47,9.47,0,0,1-2.73,6.68A10,10,0,0,1,231.32,339.12Z"/><path class="cls-1" d="M301.28,339.12a9.68,9.68,0,0,1-6.7-2.89,9.41,9.41,0,0,1-2.86-6.68,9.75,9.75,0,0,1,2.86-6.84,9.93,9.93,0,0,1,13.53,0,9.6,9.6,0,0,1,2.74,6.84,9.26,9.26,0,0,1-2.74,6.68A9.74,9.74,0,0,1,301.28,339.12Z"/></svg>