<svg id="Layer_1" data-name="Layer 1" xmlns="http://www.w3.org/2000/svg" viewBox="0 0 500 500"><defs><style>.cls-1{fill:#141414;}</style></defs><title>icons</title><path class="cls-1" d="M424,181.59H48a8.45,8.45,0,0,1-8.45-8.46V61a30.05,30.05,0,0,1,30-30H402.39a30.07,30.07,0,0,1,30,30v112.1A8.46,8.46,0,0,1,424,181.59ZM56.45,164.68H415.51V61a13.13,13.13,0,0,0-13.12-13.12H69.55A13.12,13.12,0,0,0,56.45,61Z"/><path class="cls-1" d="M424,315.26H48a8.45,8.45,0,0,1-8.45-8.45V173.12A8.45,8.45,0,0,1,48,164.67H424a8.46,8.46,0,0,1,8.46,8.45V306.81A8.46,8.46,0,0,1,424,315.26ZM56.45,298.35H415.51V181.58H56.45Z"/><path class="cls-1" d="M402.39,449H69.55a30.06,30.06,0,0,1-30-30V306.81A8.45,8.45,0,0,1,48,298.35H424a8.46,8.46,0,0,1,8.46,8.46v112.1A30.08,30.08,0,0,1,402.39,449ZM56.45,315.26V418.91A13.12,13.12,0,0,0,69.55,432H402.39a13.13,13.13,0,0,0,13.12-13.12V315.26Z"/><path class="cls-1" d="M99.83,489.33a8.57,8.57,0,0,1-3.23-.64,8.46,8.46,0,0,1-4.58-11l16.7-40.39a8.46,8.46,0,0,1,15.63,6.46L107.64,484.1A8.45,8.45,0,0,1,99.83,489.33Z"/><path class="cls-1" d="M372.14,489.33a8.45,8.45,0,0,1-7.81-5.23l-16.72-40.38a8.46,8.46,0,0,1,15.64-6.46L380,477.65a8.46,8.46,0,0,1-4.59,11A8.57,8.57,0,0,1,372.14,489.33Z"/><path class="cls-1" d="M254.78,98H217.19a8.46,8.46,0,1,1,0-16.91h37.59a8.46,8.46,0,1,1,0,16.91Z"/><path class="cls-1" d="M254.78,365.4H217.19a8.46,8.46,0,1,1,0-16.91h37.59a8.46,8.46,0,1,1,0,16.91Z"/><path class="cls-1" d="M254.78,231.72H217.19a8.45,8.45,0,1,1,0-16.9h37.59a8.45,8.45,0,1,1,0,16.9Z"/></svg>