<svg id="Layer_1" data-name="Layer 1" xmlns="http://www.w3.org/2000/svg" viewBox="0 0 500 500"><defs><style>.cls-1{fill:#141414;}</style></defs><title>icons</title><path class="cls-1" d="M444.1,250.58A143.61,143.61,0,0,0,470,167.83C470,88,405.24,23,325.63,23,257.8,23,200.94,70.22,185.55,133.57c-3.7-.29-7.4-.57-11.17-.57C94.76,133,30,198,30,277.83a143.61,143.61,0,0,0,25.9,82.75L30.58,445.31A13.74,13.74,0,0,0,50.93,461l75.73-46.43a143.34,143.34,0,0,0,47.72,8.12c67.81,0,124.7-47.21,140.11-110.55,3.68.32,7.38.55,11.14.55a143.33,143.33,0,0,0,47.71-8.12L449.07,351a13.74,13.74,0,0,0,20.35-15.66ZM174.38,395.16a115.75,115.75,0,0,1-44-8.61,13.78,13.78,0,0,0-12.38,1L67.22,418.72l17-56.81a13.76,13.76,0,0,0-2.29-12.34A116.5,116.5,0,0,1,57.5,277.83c0-64.7,52.43-117.33,116.88-117.33s116.87,52.63,116.87,117.33S238.82,395.16,174.38,395.16ZM415.79,251.91l17,56.81L382,277.56a13.82,13.82,0,0,0-12.38-1,115.74,115.74,0,0,1-44,8.61c-2.45,0-4.83-.19-7.23-.36.11-2.32.35-4.62.35-7a144.9,144.9,0,0,0-106-139.48C225.79,87.91,271.35,50.5,325.63,50.5c64.44,0,116.87,52.63,116.87,117.33a116.5,116.5,0,0,1-24.42,71.74A13.76,13.76,0,0,0,415.79,251.91Z"/></svg>