<svg id="Layer_1" data-name="Layer 1" xmlns="http://www.w3.org/2000/svg" viewBox="0 0 500 500"><defs><style>.cls-1{fill:#141414;}</style></defs><title>icons</title><path class="cls-1" d="M137.21,405.16A36.12,36.12,0,1,0,101.09,369a36.16,36.16,0,0,0,36.12,36.12Zm0-56.76A20.64,20.64,0,1,1,116.57,369a20.66,20.66,0,0,1,20.64-20.64Zm0,0"/><path class="cls-1" d="M361.79,332.92A36.12,36.12,0,1,0,397.91,369a36.16,36.16,0,0,0-36.12-36.12Zm0,56.76A20.64,20.64,0,1,1,382.43,369a20.66,20.66,0,0,1-20.64,20.64Zm0,0"/><path class="cls-1" d="M148.89,154.51h24.54a7.74,7.74,0,0,0,0-15.48H148.89c-10.76,0-27.9,7.4-35.27,15.23l-62,65.89a7.74,7.74,0,0,0,5.63,13H356.79a7.74,7.74,0,0,0,7-11L332,153.71c-3.42-7.28-15.1-14.68-23.13-14.68H204.38a7.74,7.74,0,0,0-7.74,7.74v70.94H75.16l49.73-52.83c4.38-4.66,17.61-10.37,24-10.37Zm63.23,0h96.69c2.28.1,8.1,3.79,9.13,5.75l26.72,57.45H212.12Zm0,0"/><path class="cls-1" d="M492,300.67c0-27.48-21.21-56.91-47.28-65.6L408.52,223c-6-2-14-9.1-16.72-14.86L360,140.52c-8.57-18.2-31-32.45-51.14-32.45H148.89c-19.23,0-44.63,11-57.81,25L19.71,208.88C12.58,216.45,7,230.53,7,240.93v97.15a38.74,38.74,0,0,0,38.7,38.7H60.2a77.39,77.39,0,0,0,154,0h47a7.74,7.74,0,0,0,0-15.48h-47a77.39,77.39,0,0,0-154,0H45.7a23.24,23.24,0,0,1-23.22-23.22V240.93c0-6.5,4.06-16.71,8.5-21.45l71.37-75.82c10.26-10.91,31.57-20.11,46.54-20.11h160c14.11,0,31.12,10.79,37.13,23.56l31.82,67.63c4.57,9.7,15.67,19.56,25.84,22.95l29.4,9.8a52,52,0,0,0,43.49,60.34v30.26c0,12.8-8.63,23.22-19.23,23.22H438.8a77.39,77.39,0,1,0,0,15.48h18.49c19.14,0,34.71-17.37,34.71-38.7Zm-354.79,6.46A61.92,61.92,0,1,1,75.29,369a62,62,0,0,1,61.92-61.91ZM361.79,431A61.92,61.92,0,1,1,423.71,369,62,62,0,0,1,361.79,431Zm85.95-174.55c0-1,0-2,.12-3,13.58,7.88,24.55,23.09,27.72,38.46a36.58,36.58,0,0,1-27.84-35.47Zm0,0"/></svg>